<svg version="1.1" id="Layer_1" xmlns="http://www.w3.org/2000/svg" xmlns:xlink="http://www.w3.org/1999/xlink" x="0px" y="0px"
	 width="100%" viewBox="0 0 2048 2048" enable-background="new 0 0 2048 2048" xml:space="preserve">
<path fill="#010202" opacity="1.000000" stroke="none" 
	d="
M1.000000,741.000000 
	C1.000000,494.000000 1.000000,247.500000 1.000000,1.000000 
	C683.666687,1.000000 1366.333374,1.000000 2049.000000,1.000000 
	C2049.000000,683.666687 2049.000000,1366.333374 2049.000000,2049.000000 
	C1366.333374,2049.000000 683.666687,2049.000000 1.000000,2049.000000 
	C1.000000,1613.166626 1.000000,1177.333374 1.000000,741.000000 
M1359.500366,209.001648 
	C1358.149658,208.970901 1356.798950,208.913010 1355.448242,208.913239 
	C1260.307983,208.929398 1165.167847,208.964676 1070.027588,208.967026 
	C946.721375,208.970078 823.415222,208.943954 700.109009,208.936691 
	C620.959045,208.932037 541.809082,208.993668 462.659210,208.905243 
	C440.336945,208.880295 418.076294,208.504501 396.101532,213.837128 
	C376.662415,218.554443 357.594879,224.284058 340.644714,235.011505 
	C328.081146,242.962753 316.225677,252.092896 304.436737,261.192780 
	C289.824158,272.472198 278.356934,286.828339 268.931915,302.454010 
	C261.548309,314.695160 255.582581,327.899323 250.031326,341.114349 
	C240.077454,364.809937 235.347641,389.777618 235.297989,415.448730 
	C235.081100,527.606201 235.002686,639.763977 235.018997,751.921692 
	C235.053497,989.242249 235.127518,1226.562744 235.302155,1463.883301 
	C235.346298,1523.871338 235.273727,1583.868896 236.316620,1643.843628 
	C236.963196,1681.027222 249.372833,1715.303223 268.751007,1746.646362 
	C283.337677,1770.239624 302.691101,1789.946411 325.440552,1806.073730 
	C343.698212,1819.016724 363.760742,1827.852661 385.231689,1834.308838 
	C403.268127,1839.732422 421.463562,1842.814941 440.121094,1842.892944 
	C497.619354,1843.133179 555.119202,1843.004028 612.618408,1843.005859 
	C950.114746,1843.016357 1287.611084,1843.007812 1625.107422,1843.054565 
	C1660.678467,1843.059448 1694.412964,1836.307251 1726.102783,1819.250854 
	C1743.888550,1809.678101 1759.744385,1797.991699 1774.118164,1784.017212 
	C1801.821655,1757.083008 1820.217773,1724.784424 1830.017456,1687.473267 
	C1834.711792,1669.600342 1835.483765,1651.331787 1835.498657,1633.031494 
	C1835.584961,1526.795288 1835.523560,1420.559082 1835.528809,1314.322876 
	C1835.535034,1187.910278 1835.559204,1061.497559 1835.573853,935.084961 
	C1835.593384,767.505493 1835.591675,599.926025 1835.646973,432.346527 
	C1835.657593,400.231873 1835.036621,368.234863 1822.086426,338.004150 
	C1818.891602,330.545990 1815.979370,322.924408 1812.201050,315.766510 
	C1801.401123,295.306000 1787.338867,277.377563 1770.208496,261.703308 
	C1754.774292,247.580994 1737.865601,235.868210 1718.640869,227.707214 
	C1708.928833,223.584396 1698.943115,220.021484 1688.886963,216.814102 
	C1673.650269,211.954514 1658.044678,208.854004 1641.939697,208.861069 
	C1548.126221,208.902267 1454.312866,208.925293 1359.500366,209.001648 
z"/>
<path fill="#FDFDFC" opacity="1.000000" stroke="none" 
	d="
M1359.999878,208.978058 
	C1454.312866,208.925293 1548.126221,208.902267 1641.939697,208.861069 
	C1658.044678,208.854004 1673.650269,211.954514 1688.886963,216.814102 
	C1698.943115,220.021484 1708.928833,223.584396 1718.640869,227.707214 
	C1737.865601,235.868210 1754.774292,247.580994 1770.208496,261.703308 
	C1787.338867,277.377563 1801.401123,295.306000 1812.201050,315.766510 
	C1815.979370,322.924408 1818.891602,330.545990 1822.086426,338.004150 
	C1835.036621,368.234863 1835.657593,400.231873 1835.646973,432.346527 
	C1835.591675,599.926025 1835.593384,767.505493 1835.573853,935.084961 
	C1835.559204,1061.497559 1835.535034,1187.910278 1835.528809,1314.322876 
	C1835.523560,1420.559082 1835.584961,1526.795288 1835.498657,1633.031494 
	C1835.483765,1651.331787 1834.711792,1669.600342 1830.017456,1687.473267 
	C1820.217773,1724.784424 1801.821655,1757.083008 1774.118164,1784.017212 
	C1759.744385,1797.991699 1743.888550,1809.678101 1726.102783,1819.250854 
	C1694.412964,1836.307251 1660.678467,1843.059448 1625.107422,1843.054565 
	C1287.611084,1843.007812 950.114746,1843.016357 612.618408,1843.005859 
	C555.119202,1843.004028 497.619354,1843.133179 440.121094,1842.892944 
	C421.463562,1842.814941 403.268127,1839.732422 385.231689,1834.308838 
	C363.760742,1827.852661 343.698212,1819.016724 325.440552,1806.073730 
	C302.691101,1789.946411 283.337677,1770.239624 268.751007,1746.646362 
	C249.372833,1715.303223 236.963196,1681.027222 236.316620,1643.843628 
	C235.273727,1583.868896 235.346298,1523.871338 235.302155,1463.883301 
	C235.127518,1226.562744 235.053497,989.242249 235.018997,751.921692 
	C235.002686,639.763977 235.081100,527.606201 235.297989,415.448730 
	C235.347641,389.777618 240.077454,364.809937 250.031326,341.114349 
	C255.582581,327.899323 261.548309,314.695160 268.931915,302.454010 
	C278.356934,286.828339 289.824158,272.472198 304.436737,261.192780 
	C316.225677,252.092896 328.081146,242.962753 340.644714,235.011505 
	C357.594879,224.284058 376.662415,218.554443 396.101532,213.837128 
	C418.076294,208.504501 440.336945,208.880295 462.659210,208.905243 
	C541.809082,208.993668 620.959045,208.932037 700.109009,208.936691 
	C823.415222,208.943954 946.721375,208.970078 1070.027588,208.967026 
	C1165.167847,208.964676 1260.307983,208.929398 1355.448242,208.913239 
	C1356.798950,208.913010 1358.149658,208.970901 1359.999878,208.978058 
M1419.164429,554.183105 
	C1497.052002,473.798492 1574.939453,393.413849 1653.058960,312.789886 
	C1634.484863,302.599640 1615.402710,296.347504 1594.796265,296.317413 
	C1498.641602,296.177032 1402.486450,296.278900 1306.331543,296.284668 
	C1163.179077,296.293304 1020.026550,296.288177 876.874023,296.300262 
	C797.549622,296.306946 718.225220,296.337189 638.900818,296.355927 
	C580.910706,296.369629 522.920410,296.297729 464.930847,296.479370 
	C455.482697,296.508972 445.804779,296.582001 436.653015,298.569122 
	C426.069672,300.867004 415.856476,305.052887 405.654999,308.878754 
	C393.387970,313.479309 382.638275,320.739716 372.906250,329.422852 
	C358.157410,342.582123 346.959167,358.366455 339.486420,376.657990 
	C333.694489,390.835358 328.654633,405.245178 328.757385,420.906311 
	C328.841522,433.732605 328.690491,446.560272 328.679199,459.387360 
	C328.600342,549.046814 328.479218,638.706238 328.469940,728.365723 
	C328.454956,872.684143 328.522675,1017.002625 328.542450,1161.321045 
	C328.557922,1274.310791 328.438416,1387.300537 328.615326,1500.290039 
	C328.685211,1544.926392 329.177643,1589.565430 329.950378,1634.195068 
	C330.174896,1647.160034 334.955231,1659.219482 340.737793,1671.532715 
	C348.782654,1663.050537 356.366547,1654.968872 364.044495,1646.977661 
	C377.751801,1632.710693 391.530365,1618.512207 405.253357,1604.260376 
	C429.121735,1579.472168 452.893280,1554.590210 476.849548,1529.887329 
	C500.456299,1505.544434 524.370605,1481.499390 547.915466,1457.097412 
	C574.920715,1429.109253 601.600952,1400.807861 628.547424,1372.762695 
	C652.607910,1347.721436 676.861694,1322.866089 700.988342,1297.888062 
	C727.865784,1270.062134 754.659973,1242.155518 781.567810,1214.358887 
	C790.187866,1205.454102 799.156311,1196.886597 807.784302,1187.989136 
	C821.627441,1173.713501 835.322815,1159.294434 849.075378,1144.930908 
	C862.579834,1130.826538 876.022644,1116.662476 889.591797,1102.620605 
	C907.595337,1083.989868 925.743713,1065.499268 943.743103,1046.864502 
	C979.539185,1009.804810 1015.237854,972.651245 1051.047241,935.604553 
	C1092.066895,893.167542 1133.212402,850.852234 1174.209106,808.393066 
	C1203.199341,778.368835 1232.021973,748.182800 1260.939331,718.088196 
	C1286.871338,691.100403 1312.794922,664.104248 1338.799316,637.186279 
	C1347.042358,628.653748 1355.533203,620.360535 1364.556396,612.247070 
	C1365.490479,612.358582 1366.866455,612.925049 1367.291504,612.512329 
	C1372.422119,607.530884 1377.829102,602.742004 1382.306763,597.209167 
	C1385.879883,592.794373 1392.291504,591.438660 1394.264893,585.510681 
	C1394.363770,585.213684 1395.131348,585.085632 1395.610107,584.977478 
	C1398.417725,584.342590 1400.485474,583.278381 1400.185181,579.723206 
	C1400.101440,578.732666 1401.722900,576.608459 1402.175781,576.711060 
	C1408.513428,578.145874 1407.733276,573.248230 1408.704468,569.775391 
	C1409.039673,568.576599 1409.927979,567.532593 1410.563721,566.417847 
	C1410.931641,566.757812 1411.299683,567.097839 1411.667725,567.437805 
	C1412.801270,566.702087 1414.255249,566.200439 1415.000122,565.180847 
	C1416.446045,563.201416 1417.672363,561.006836 1418.631348,558.749207 
	C1419.120239,557.598450 1418.832275,556.117615 1419.164429,554.183105 
M1081.892578,1023.664307 
	C1067.125000,1038.931152 1052.328857,1054.170410 1037.596924,1069.471558 
	C1018.469482,1089.338135 999.458069,1109.316772 980.272217,1129.126831 
	C967.423035,1142.394043 954.256287,1155.353638 941.407959,1168.621704 
	C901.244507,1210.096924 861.129089,1251.618774 821.062866,1293.188110 
	C783.065796,1332.610596 745.242554,1372.201050 707.180847,1411.560913 
	C668.551941,1451.507202 629.713684,1491.250854 590.988281,1531.103760 
	C565.147888,1557.696533 539.340576,1584.321533 513.525818,1610.939087 
	C486.770172,1638.526611 460.014587,1666.114258 433.276459,1693.718750 
	C420.835693,1706.562500 408.435638,1719.445679 395.379395,1732.971802 
	C402.062408,1736.387573 408.494629,1740.057861 415.230072,1743.044312 
	C433.949951,1751.344971 453.750458,1754.109131 474.091705,1754.106689 
	C781.899170,1754.069214 1089.706665,1754.073486 1397.514160,1754.057373 
	C1460.174683,1754.054077 1522.835571,1754.110229 1585.495728,1753.929077 
	C1609.981812,1753.858276 1632.921875,1747.016724 1653.709717,1734.484741 
	C1696.616333,1708.618408 1720.245239,1670.106445 1721.254150,1620.073486 
	C1722.614502,1552.606323 1721.829590,1485.094116 1721.809937,1417.601318 
	C1721.755615,1230.451172 1721.595459,1043.301025 1721.527954,856.150818 
	C1721.487915,744.995911 1721.672974,633.840698 1721.483643,522.686157 
	C1721.421265,486.050903 1720.786011,449.409668 1719.827515,412.786499 
	C1719.475098,399.319000 1713.983887,386.889587 1708.983643,372.769409 
	C1700.827271,381.373199 1693.591187,389.107605 1686.244995,396.735962 
	C1663.049927,420.822144 1639.802002,444.857574 1616.596191,468.933563 
	C1585.519043,501.175781 1554.510620,533.484375 1523.381958,565.676697 
	C1495.494141,594.517334 1467.448975,623.205688 1439.539551,652.025452 
	C1421.357300,670.800476 1403.332275,689.727417 1385.169312,708.521301 
	C1348.369141,746.600037 1311.524170,784.635681 1274.695435,822.686890 
	C1255.019531,843.016052 1235.285400,863.289246 1215.672119,883.678772 
	C1183.589966,917.030762 1151.561646,950.434631 1119.563843,983.867432 
	C1111.290039,992.512268 1103.214478,1001.346619 1094.433960,1010.347778 
	C1092.211792,1012.549072 1089.873657,1014.647400 1087.801636,1016.981995 
	C1085.909546,1019.113647 1084.305908,1021.501038 1081.892578,1023.664307 
M1366.261963,614.826660 
	C1366.375854,614.984558 1366.489868,615.142456 1366.603760,615.300415 
	C1366.581177,615.081055 1366.558472,614.861694 1366.261963,614.826660 
z"/>
<path fill="#010101" opacity="1.000000" stroke="none" 
	d="
M1095.047852,1010.093872 
	C1103.214478,1001.346619 1111.290039,992.512268 1119.563843,983.867432 
	C1151.561646,950.434631 1183.589966,917.030762 1215.672119,883.678772 
	C1235.285400,863.289246 1255.019531,843.016052 1274.695435,822.686890 
	C1311.524170,784.635681 1348.369141,746.600037 1385.169312,708.521301 
	C1403.332275,689.727417 1421.357300,670.800476 1439.539551,652.025452 
	C1467.448975,623.205688 1495.494141,594.517334 1523.381958,565.676697 
	C1554.510620,533.484375 1585.519043,501.175781 1616.596191,468.933563 
	C1639.802002,444.857574 1663.049927,420.822144 1686.244995,396.735962 
	C1693.591187,389.107605 1700.827271,381.373199 1708.983643,372.769409 
	C1713.983887,386.889587 1719.475098,399.319000 1719.827515,412.786499 
	C1720.786011,449.409668 1721.421265,486.050903 1721.483643,522.686157 
	C1721.672974,633.840698 1721.487915,744.995911 1721.527954,856.150818 
	C1721.595459,1043.301025 1721.755615,1230.451172 1721.809937,1417.601318 
	C1721.829590,1485.094116 1722.614502,1552.606323 1721.254150,1620.073486 
	C1720.245239,1670.106445 1696.616333,1708.618408 1653.709717,1734.484741 
	C1632.921875,1747.016724 1609.981812,1753.858276 1585.495728,1753.929077 
	C1522.835571,1754.110229 1460.174683,1754.054077 1397.514160,1754.057373 
	C1089.706665,1754.073486 781.899170,1754.069214 474.091705,1754.106689 
	C453.750458,1754.109131 433.949951,1751.344971 415.230072,1743.044312 
	C408.494629,1740.057861 402.062408,1736.387573 395.379395,1732.971802 
	C408.435638,1719.445679 420.835693,1706.562500 433.276459,1693.718750 
	C460.014587,1666.114258 486.770172,1638.526611 513.525818,1610.939087 
	C539.340576,1584.321533 565.147888,1557.696533 590.988281,1531.103760 
	C629.713684,1491.250854 668.551941,1451.507202 707.180847,1411.560913 
	C745.242554,1372.201050 783.065796,1332.610596 821.062866,1293.188110 
	C861.129089,1251.618774 901.244507,1210.096924 941.407959,1168.621704 
	C954.256287,1155.353638 967.423035,1142.394043 980.272217,1129.126831 
	C999.458069,1109.316772 1018.469482,1089.338135 1037.596924,1069.471558 
	C1052.328857,1054.170410 1067.125000,1038.931152 1082.671631,1023.762451 
	C1084.827759,1023.584839 1086.747070,1023.785217 1087.483276,1022.946838 
	C1089.977417,1020.106567 1092.052734,1016.898621 1094.621216,1013.374146 
	C1095.526367,1015.093262 1095.872925,1015.751343 1096.219482,1016.409485 
	C1096.640137,1016.209534 1097.060669,1016.009644 1097.481201,1015.809692 
	C1096.670044,1013.904419 1095.859009,1011.999146 1095.047852,1010.093872 
z"/>
<path fill="#010101" opacity="1.000000" stroke="none" 
	d="
M1363.910645,611.957886 
	C1355.533203,620.360535 1347.042358,628.653748 1338.799316,637.186279 
	C1312.794922,664.104248 1286.871338,691.100403 1260.939331,718.088196 
	C1232.021973,748.182800 1203.199341,778.368835 1174.209106,808.393066 
	C1133.212402,850.852234 1092.066895,893.167542 1051.047241,935.604553 
	C1015.237854,972.651245 979.539185,1009.804810 943.743103,1046.864502 
	C925.743713,1065.499268 907.595337,1083.989868 889.591797,1102.620605 
	C876.022644,1116.662476 862.579834,1130.826538 849.075378,1144.930908 
	C835.322815,1159.294434 821.627441,1173.713501 807.784302,1187.989136 
	C799.156311,1196.886597 790.187866,1205.454102 781.567810,1214.358887 
	C754.659973,1242.155518 727.865784,1270.062134 700.988342,1297.888062 
	C676.861694,1322.866089 652.607910,1347.721436 628.547424,1372.762695 
	C601.600952,1400.807861 574.920715,1429.109253 547.915466,1457.097412 
	C524.370605,1481.499390 500.456299,1505.544434 476.849548,1529.887329 
	C452.893280,1554.590210 429.121735,1579.472168 405.253357,1604.260376 
	C391.530365,1618.512207 377.751801,1632.710693 364.044495,1646.977661 
	C356.366547,1654.968872 348.782654,1663.050537 340.737793,1671.532715 
	C334.955231,1659.219482 330.174896,1647.160034 329.950378,1634.195068 
	C329.177643,1589.565430 328.685211,1544.926392 328.615326,1500.290039 
	C328.438416,1387.300537 328.557922,1274.310791 328.542450,1161.321045 
	C328.522675,1017.002625 328.454956,872.684143 328.469940,728.365723 
	C328.479218,638.706238 328.600342,549.046814 328.679199,459.387360 
	C328.690491,446.560272 328.841522,433.732605 328.757385,420.906311 
	C328.654633,405.245178 333.694489,390.835358 339.486420,376.657990 
	C346.959167,358.366455 358.157410,342.582123 372.906250,329.422852 
	C382.638275,320.739716 393.387970,313.479309 405.654999,308.878754 
	C415.856476,305.052887 426.069672,300.867004 436.653015,298.569122 
	C445.804779,296.582001 455.482697,296.508972 464.930847,296.479370 
	C522.920410,296.297729 580.910706,296.369629 638.900818,296.355927 
	C718.225220,296.337189 797.549622,296.306946 876.874023,296.300262 
	C1020.026550,296.288177 1163.179077,296.293304 1306.331543,296.284668 
	C1402.486450,296.278900 1498.641602,296.177032 1594.796265,296.317413 
	C1615.402710,296.347504 1634.484863,302.599640 1653.058960,312.789886 
	C1574.939453,393.413849 1497.052002,473.798492 1418.714844,554.613525 
	C1409.865601,563.800232 1401.449707,572.541077 1393.070435,581.317017 
	C1383.333740,591.514526 1373.629150,601.742920 1363.910645,611.957886 
z"/>
<path fill="#ECEBEA" opacity="1.000000" stroke="none" 
	d="
M1364.233521,612.102478 
	C1373.629150,601.742920 1383.333740,591.514526 1393.070435,581.317017 
	C1401.449707,572.541077 1409.865601,563.800232 1418.580322,554.914917 
	C1418.832275,556.117615 1419.120239,557.598450 1418.631348,558.749207 
	C1417.672363,561.006836 1416.446045,563.201416 1415.000122,565.180847 
	C1414.255249,566.200439 1412.801270,566.702087 1411.667725,567.437805 
	C1411.299683,567.097839 1410.931641,566.757812 1410.563721,566.417847 
	C1409.927979,567.532593 1409.039673,568.576599 1408.704468,569.775391 
	C1407.733276,573.248230 1408.513428,578.145874 1402.175781,576.711060 
	C1401.722900,576.608459 1400.101440,578.732666 1400.185181,579.723206 
	C1400.485474,583.278381 1398.417725,584.342590 1395.610107,584.977478 
	C1395.131348,585.085632 1394.363770,585.213684 1394.264893,585.510681 
	C1392.291504,591.438660 1385.879883,592.794373 1382.306763,597.209167 
	C1377.829102,602.742004 1372.422119,607.530884 1367.291504,612.512329 
	C1366.866455,612.925049 1365.490479,612.358582 1364.233521,612.102478 
z"/>
<path fill="#262627" opacity="1.000000" stroke="none" 
	d="
M1094.740967,1010.220825 
	C1095.859009,1011.999146 1096.670044,1013.904419 1097.481201,1015.809692 
	C1097.060669,1016.009644 1096.640137,1016.209534 1096.219482,1016.409485 
	C1095.872925,1015.751343 1095.526367,1015.093262 1094.621216,1013.374146 
	C1092.052734,1016.898621 1089.977417,1020.106567 1087.483276,1022.946838 
	C1086.747070,1023.785217 1084.827759,1023.584839 1083.012939,1023.818115 
	C1084.305908,1021.501038 1085.909546,1019.113647 1087.801636,1016.981995 
	C1089.873657,1014.647400 1092.211792,1012.549072 1094.740967,1010.220825 
z"/>
<path fill="#ECEBEA" opacity="1.000000" stroke="none" 
	d="
M1366.398926,614.734497 
	C1366.558472,614.861694 1366.581177,615.081055 1366.603760,615.300415 
	C1366.489868,615.142456 1366.375854,614.984558 1366.398926,614.734497 
z"/>
</svg>